<svg xmlns="http://www.w3.org/2000/svg" width="2433.416" height="1575.416" viewBox="0 0 2433.416 1575.416">
  <g id="Group_5" data-name="Group 5" transform="translate(-2893 1930.342)">
    <g id="cocktail_party-bro" data-name="cocktail party-bro" transform="translate(2877.481 -1949.933)">
      <g id="freepik--background-simple--inject-222" transform="translate(15.519 19.591)">
        <path id="Path_45" data-name="Path 45" d="M2448.807,973.656c4.265-216.849-98.512-425.031-278.372-579.88-135.842-116.87-337.37-251.893-601.07-325.018C1039.987-77.969,668.221,130.179,538.9,345.152S223.705,638.606,74.18,867.228s-20.2,528.9,468.742,651.742,1119.222,81.894,1454.818-17.061C2245.777,1428.749,2443.006,1267.861,2448.807,973.656Z" transform="translate(-15.519 -19.591)" fill="#ffe7c1"/>
        <g id="Group_1" data-name="Group 1" transform="translate(183.923 -38.658)">
          <g id="Group_2" data-name="Group 2">
            <g id="Group_4" data-name="Group 4">
              <path id="Path_1" data-name="Path 1" d="M1548.75,1453.531H451.246a4.082,4.082,0,0,1-4.08-4.086V847.906h-93.8a4.08,4.08,0,0,1-2.521-7.289L997.478,332.531a4.084,4.084,0,0,1,5.047,0l646.627,508.086a4.081,4.081,0,0,1-2.523,7.289h-93.793v601.539a4.084,4.084,0,0,1-4.086,4.086m-1093.422-8.172H1544.664V843.824a4.086,4.086,0,0,1,4.086-4.082h86.078L1000,340.933,365.17,839.742h86.076a4.08,4.08,0,0,1,4.082,4.082Z" fill="#ffb33b" stroke="#ffb33b" stroke-width="3"/>
              <path id="Path_2" data-name="Path 2" d="M1513.746,1313.668a.665.665,0,0,0-.383-.066,1.008,1.008,0,0,0-.855-.157A197.476,197.476,0,0,0,1480,1324.5c-.281.121-.555.234-.824.36-.992.441-1.969.878-2.961,1.336-.2.093-.391.183-.6.284a191.539,191.539,0,0,0-37.941,23.493c-.219.172-.434.347-.649.515q-2.754,2.216-5.437,4.536a2.276,2.276,0,0,0-.223.206c-.227.188-.461.391-.676.594-12.39,10.914-22.637,23.809-34.082,35.633-11.574,11.961-23.7,20.426-38.843,25.813-1.852,0-3.735-.043-5.61-.137a.994.994,0,0,0-1,1.309,1.044,1.044,0,0,0,.621.765c-.07.02-.125.035-.183.055a.2.2,0,0,0,.047.383c.879-.067,1.742-.168,2.621-.27,1.418.043,2.847.059,4.258.035,30.894-.226,58.832-12.367,82.988-31.687,12.422-9.934,23.7-21.188,34.7-32.653.211-.222.418-.437.641-.664.042-.043.086-.1.136-.148.551-.559,1.1-1.145,1.641-1.719.269-.281.543-.574.809-.855q8.319-8.7,16.55-17.508c5.684-6.074,12.086-11.949,17.047-18.688h.035a.934.934,0,0,0,.653-.554,1.189,1.189,0,0,0,.078-.485.722.722,0,0,0,.1-.133.414.414,0,0,0-.156-.644" fill="#fff5e6"/>
              <path id="Path_3" data-name="Path 3" d="M1337.555,1411.609c21.031-17.883,32.18-47.453,37.031-73.949a169.175,169.175,0,0,0,2.227-20.848c.023-.226.031-.453.043-.687.113-2,.215-4,.3-6,.012-.176.012-.36.02-.551.883-18.949,1.613-37.941,11.367-54.57a1.6,1.6,0,0,0,.1-1.27.881.881,0,0,0-.4-.531c-.41-.27-1.1-.211-2.156.539-10.215,7.269-18.43,18.16-24.481,30.2-.148.246-.285.516-.41.778-.472.952-.922,1.9-1.359,2.867a4.206,4.206,0,0,0-.223.484,122.822,122.822,0,0,0-9.262,30.019,151.688,151.688,0,0,0-1.835,19.4c-.024.375-.032.735-.055,1.1-.024.969-.07,1.938-.078,2.9-.016.269-.024.527-.035.8-.531,19.691.246,39.57-7.086,57.789-.758,1.867-1.59,3.722-2.524,5.547-.7,1.359-1.453,2.718-2.25,4.07a.231.231,0,0,0,.024.281c-.1.094-.2.191-.317.285-.933.8.418,2.149,1.352,1.34" fill="#fff5e6"/>
              <path id="Path_4" data-name="Path 4" d="M1406.875,1364.414c8.351-10.551,15.191-22.308,21.9-34.055.152-.273.313-.543.461-.824.7-1.2,1.383-2.394,2.059-3.6h.008c.16-.3.34-.594.5-.887h.007q2.127-3.75,4.289-7.461c10.52-18.016,20.961-36.082,31.469-54.11a1.17,1.17,0,0,0,.137-.394v-.012a1.193,1.193,0,0,0-.305-.964,1.092,1.092,0,0,0-1.465-.25,234.9,234.9,0,0,0-29.195,22.21c-.258.223-.519.465-.777.688-.719.652-1.442,1.3-2.149,1.969-.226.191-.437.4-.652.609a237.826,237.826,0,0,0-37.516,44.644c-.133.216-.277.418-.414.633-.144.235-.312.469-.453.707-.91,1.418-1.808,2.836-2.711,4.262-.133.227-.281.453-.425.692-8.044,12.949-15.38,26.347-23.317,39.367-9.1,14.91-19.293,33.305-34.855,42.363a4.915,4.915,0,0,0-1.012.555,1.046,1.046,0,0,0-.418.66,1.4,1.4,0,0,0-.481.6c-.015.02,0,.036-.015.067a1.3,1.3,0,0,0-.875,1.437,1.487,1.487,0,0,0,.91,1.266,1.407,1.407,0,0,0,.879.043,75.612,75.612,0,0,0,12.059-4.129c1.4-.617,2.773-1.258,4.109-1.957a106.391,106.391,0,0,0,22.508-15.723,305.961,305.961,0,0,0,35.742-38.4" fill="#fff5e6"/>
              <path id="Path_5" data-name="Path 5" d="M437.625,1002.789c1.812,3.648,3.529,7.316,5.148,10.961l-.01.043a290.056,290.056,0,0,1,15.442,43.156,164.376,164.376,0,0,0,19.605,44.457c15.01,23.887,34.385,44.465,51.977,66.465l.023.02c3.01,4.582,6.149,9.07,9.4,13.527a.382.382,0,0,0,.23.168c1.383,3.519,2.787,7.07,4.233,10.555l.013.144c.022.012,0,.039.022.058,1.6,17.575,3.758,33.887,6.158,48.743.059.3.121.617.156.91-.1-.176-.178-.383-.267-.551-11.6-22.773-26.9-43.793-41.764-64.449a1021.417,1021.417,0,0,0-75.422-92.855.759.759,0,0,0-.391-.282,1.323,1.323,0,0,0-1.564,1.9,157.834,157.834,0,0,1,8.211,13.711.85.85,0,0,1,.1.183c15.131,28.184,23.105,59.848,40.222,87.078,9.639,15.414,22.367,28.657,36.026,40.493,9.523,8.292,21.646,15.664,31.664,24.55a1.826,1.826,0,0,1,.324.262l1.365,1.25c1.463,1.324,2.864,2.742,4.192,4.184.2,1.011.392,2.082.613,3.1.205,1.172.414,2.281.645,3.441,1.068,5.434,2.175,10.77,3.3,15.922.422,1.868.809,3.711,1.252,5.528l-.025.031c12.75,56.25,27.9,91.613,28.076,91.973l6.758-2.934c-.17-.406-15.989-37.36-28.8-95.949,8.371-4.352,16.3-9.485,25.084-13.289,9.295-4.016,18.814-7.536,28.115-11.578,16.539-7.188,32.655-15.708,46.522-27.34,18.291-15.414,33.509-38.59,34.1-62.985-.025-.023.006-.047.006-.089a56.737,56.737,0,0,0-1.793-15.914.148.148,0,0,0-.049-.079.7.7,0,0,0-.683-.414c-.467-1.41-2.859-1.675-3.2.133-7.532,39.215-49.408,51.141-79.782,68.07-23.181,12.946-41.382,32.254-49.676,57.106-.679-3.125-1.314-6.344-1.941-9.61-.672-3.285-1.285-6.636-1.908-10.046-.979-5.41-1.92-11.094-2.832-16.989-.021-.035,0-.047,0-.047-.027-.011,0-.054,0-.054a31.8,31.8,0,0,1,2.752-8.078c24.158-24.9,57.769-36.6,85.49-56.934a103.444,103.444,0,0,0,38.012-52.3,116.276,116.276,0,0,0,3.891-14.894,140.2,140.2,0,0,0,2.4-16.762,1.591,1.591,0,0,0-.133-.637c-.338-.992-1.76-1.484-2.289-.258-16.766,38.188-56.873,51.422-85.264,78.739-13.289,12.773-24.088,27.961-33.726,43.6-3.047,4.961-7.012,10.375-9.938,16.1-.826.867-1.7,1.722-2.525,2.625-2.307-16.071-4.236-33.633-5.508-52.391,15.5-19.582,39.586-28.793,60.344-41.742,17.232-10.715,33.469-23.734,45.242-40.453,19.789-28.145,24.07-64.824,13.223-97.238a2.762,2.762,0,0,0-.463-.805,1.5,1.5,0,0,0-.672-.524l-.018-.023a2.441,2.441,0,0,0-3.289,1.555c-14.068,42.91-43.361,77.32-74.3,109.2-15.286,15.824-31.016,33.637-39.014,54.07a.454.454,0,0,0-.119.27c-.584,1.043-1.135,2.125-1.647,3.227-.8-16.407-1.074-33.688-.586-51.614l.018-.019a2.241,2.241,0,0,0,.049-1.867q.328-11.99,1.156-24.266l.021-.028a207.643,207.643,0,0,1,15.85-40.437c10.652-20.836,24.412-40.43,32.27-62.6a149.343,149.343,0,0,0,7.7-63.219c-2-21.586-9.594-39.653-18.326-59.008-.275-.637-.574-1.285-.863-1.941a1.632,1.632,0,0,1-.141-1.063c-1.264,2.125-2.477,4.258-3.647,6.418l-.021.027c-20.359,36.231-34.2,74.145-38.795,115.914-3.322,30.36-2.268,60.719-.254,91.059a.673.673,0,0,1,0,.094c-.982,10.644-1.646,21.113-2.09,31.387a.655.655,0,0,0-.191-.2,415.2,415.2,0,0,0-76.4-174.41,1.786,1.786,0,0,0-3.264,1.192,1.04,1.04,0,0,0,.031.292c.332,1.45.694,2.926,1.028,4.38a.782.782,0,0,1,.021.1c8.1,33.937,15.5,68.914,27.373,101.7,10.4,28.8,30.344,51.547,51.217,73.27a680.165,680.165,0,0,0,1.547,72.2c-.977-1.352-1.948-2.668-2.961-3.985a447.4,447.4,0,0,0-34.953-80.765c-18.557-33.016-41.467-63.277-64.274-93.41a1.624,1.624,0,0,0-2.57-.219l-.024.023a1.682,1.682,0,0,0-.22,1.977M542.7,1184.871a3.7,3.7,0,0,1,.4.574c.01.27.045.563.059.82a6.388,6.388,0,0,1-.463-1.394" fill="#fff5e6"/>
              <path id="Path_6" data-name="Path 6" d="M1360.305,1204.988l-.012-.024a1.361,1.361,0,0,0-2.047-.695c-27.613,15.418-55.347,30.9-80.675,49.949a374.8,374.8,0,0,0-53.942,50.137c-1.226.66-2.41,1.352-3.609,2.051a571.253,571.253,0,0,0,25.469-54.813c23.308-9.621,46.226-20.328,63.89-38.91,20.129-21.129,37.559-45.433,55.192-68.723.011-.023.042-.035.042-.058.743-1.008,1.52-2.016,2.274-3.016a2.086,2.086,0,0,0,.121-.211,1.493,1.493,0,0,0-2.086-2.015,347.52,347.52,0,0,0-117.234,107.93.571.571,0,0,0-.207.1c3.109-8.008,6.121-16.269,8.945-24.75a.407.407,0,0,1,.035-.066c11.746-22.575,22.774-45.5,30.438-69.863,10.531-33.548,12.679-67.266,9.269-101.872l-.008-.031c-.168-2.043-.382-4.086-.632-6.148a1.321,1.321,0,0,1-.461.773c-.45.406-.9.805-1.317,1.207-13.2,11.879-25.1,23.172-33.891,39.043a124.689,124.689,0,0,0-15.37,51.028c-1.45,19.632,2.511,39.265,3.66,58.832a174.49,174.49,0,0,1-1.461,36.308l.007.035q-3.508,9.692-7.277,18.973a1.88,1.88,0,0,0-.59,1.437v.024c-5.644,13.906-11.664,27.051-17.808,39.359-.024-1.012-.082-2.027-.168-3.027a.593.593,0,0,0,0-.258c.726-18.34-5.324-37.277-11.715-54.539-12.973-34.836-23.856-71.055-20.188-108.68a2.057,2.057,0,0,0-2-2.3l-.027.012a1.268,1.268,0,0,0-.691.18,2.05,2.05,0,0,0-.622.461c-19.218,21.187-28.277,50.722-22.582,78.957,3.4,16.761,11.454,32.215,21.051,46.223,11.555,16.9,26.9,32.054,32.192,52.273-7.27,13.937-14.661,26.746-21.836,38.3-.34-.977-.711-1.922-1.051-2.872-.324-5.367-1.543-10.843-2.191-15.683-2.129-15.223-5.3-30.492-11.184-44.75-12.559-30.465-38.84-54.117-38.84-89.012.008-1.113-1.25-1.226-1.847-.57a1.276,1.276,0,0,0-.305.445,113.529,113.529,0,0,0-3.8,13.652,95.615,95.615,0,0,0-2.035,12.716,86.494,86.494,0,0,0,11.531,52.859c14.4,24.91,36.207,45.183,46.356,72.379a26.692,26.692,0,0,1-.61,7.125.038.038,0,0,1-.031.035.029.029,0,0,1,0,.043q-4.031,6.317-7.9,12.062c-1.624,2.4-3.218,4.762-4.839,7.055q-2.368,3.445-4.715,6.719c2-21.84-5.446-42.77-18.856-60.469-17.578-23.2-45.648-46.41-38.234-79a1.393,1.393,0,0,0-2.41-1.176.569.569,0,0,0-.656.086.068.068,0,0,0-.063.039,46.831,46.831,0,0,0-6.727,11.586c-.015.043,0,.055-.023.067-7.758,18.894-3.9,41.769,4.938,59.738,6.707,13.59,16.195,25.527,26.441,36.6,5.774,6.226,11.871,12.132,17.656,18.343,5.446,5.86,9.8,12.469,14.742,18.621-29.527,40.574-54.082,63.563-54.343,63.809l4.191,4.523c.258-.21,23.766-22.21,52.453-61.019l-.007-.043c.941-1.227,1.867-2.508,2.824-3.816,2.6-3.555,5.23-7.27,7.878-11.082.571-.8,1.1-1.59,1.653-2.418.508-.708,1.008-1.465,1.515-2.184,1.5-.641,3.051-1.258,4.614-1.778l1.465-.507a3.438,3.438,0,0,1,.335-.09c10.668-3.441,22.438-5.02,32.528-8.145,14.449-4.476,28.66-10.355,41.226-18.926,22.278-15.089,39.036-36.683,60.11-53.179a.482.482,0,0,1,.133-.109,131.131,131.131,0,0,1,10.906-7.743,1.106,1.106,0,0,0-.551-1.98.639.639,0,0,0-.394.078,857.872,857.872,0,0,0-89.036,45.773c-18.332,10.836-37.117,21.8-53.683,35.328a4.381,4.381,0,0,1-.383.34c.125-.214.27-.425.418-.64,6.852-10.578,13.988-22.36,21.117-35.274.024-.011.016-.035.047-.043l.055-.093c2.273-2.208,4.547-4.442,6.785-6.672a.317.317,0,0,0,.234-.055q6-3.474,11.746-7.2h.04c20.878-10.945,42.644-20.2,62.187-33.438a137.9,137.9,0,0,0,29.973-27.48,242.372,242.372,0,0,1,26.351-27.86l.016-.042c2.449-2.25,5-4.477,7.629-6.676a1.4,1.4,0,0,0,.492-1.586m-143.09,106.668c.094-.192.215-.406.316-.6a2.173,2.173,0,0,1,.5-.3,5.264,5.264,0,0,1-.82.9" fill="#fff5e6"/>
              <path id="Path_7" data-name="Path 7" d="M454.225,1383.016c-10.158-2.586-19.7-7.012-30.072-8.82-10.754-1.868-21.62-1.891-32.3-4.387a2.41,2.41,0,0,1-.008-4.625c35.713-8.856,75.172-7.48,109.146,7.527-7.06-8.215-14.257-17.039-19.841-26.328-5.26,2.993-11.258,3.551-17.225,2.821-3.672-.438-13.653-2.246-15.275-6.606a3.138,3.138,0,0,1-.112-.82c-.764.035-1.537.023-2.3.07q-12.312.012-24.632-.676c-.919-.046-1.861-.1-2.832-.136h-.007c-6.135-.246-13.035-.641-17.041-5.692-4.584-5.8,1.271-11.894,6.988-13.031a46.021,46.021,0,0,1,8.723-.258h.009c10.434.359,25.221,2.071,26.618,2.035-2.321-.785-24.875-11.406-37.458-19.781a.152.152,0,0,0-.027-.043,40.738,40.738,0,0,1-6.721-5.277c-4.472-4.7-13.3-13.852-12.1-20.883,2.021-11.848,19.17-4.906,25.691-2a36.612,36.612,0,0,1,7.907,5.289c10.726,8.82,24.144,24.824,30.551,32.121-1.338-3.586-15.36-29.672-18.512-46-.125-.609-.219-1.176-.307-1.734-1.156-7.664-3.455-18.375,1.586-25.07a4.011,4.011,0,0,1,3.131-1.926c5.082.234,10.185,10.129,12.209,13.9.137.282.279.528.4.824a146.042,146.042,0,0,1,7.455,18.157c4.246,11.824,7.4,26.835,9.2,38.808,1.871-15.48,1.746-32.551,6.281-46.683.484-1.477,1.1-4.063,1.9-7.137l.01-.008.008-.023c2.486-9.516,6.677-23.414,13.591-21.821,6.145,1.418,5.522,12.93,4.227,21.61-.564,3.765-1.248,7-1.555,8.637-2.539,13.562-4.4,29.863-10.5,42.328,2.184-1.618,8.323-8.672,14.561-15.883l0-.016c.008-.008.014-.019.031-.019.026-.047.088-.114.168-.223,1.846-2.117,3.7-4.254,5.438-6.262,3.459-3.957,6.541-7.41,8.5-9.347,3.629-3.555,10.875-10.52,14.936-3.477,4.187,7.269-2.331,18.867-6.618,24.672-.008.023-.012.039-.012.039-5.7,7.738-11.777,15.883-18.62,22.828a57.014,57.014,0,0,1-2.632,7.278,51.242,51.242,0,0,1-2.658,5.3,42.071,42.071,0,0,1-9.136,11.41c8.5,9.215,15.777,19.883,24.119,29.153q2.367,2.635,4.81,5.2c-3.392-12.039-2.365-26-.365-37.606,3.112-18.058,12.533-35.14,29.6-43.144a1.553,1.553,0,0,1,2.156,1.875.408.408,0,0,1,.215.586c-16.932,26.328-9.109,59.582-22.59,87.179a148.436,148.436,0,0,0,38.607,26.668c-17.048-24.609-22.806-59.308-9.06-86.527.689-1.375,3.4-2.668,4.256.2,8.914,29.7,5.6,61.594,18.014,90.5a2.69,2.69,0,0,1,.1,1.832c15.521,6.563,31.521,12.063,46.781,19.368,2.248,1.082.733,4.714-1.632,4.027-24.225-7.133-49.389-15.785-71.442-28.723-16.494,8.235-35.607,8.762-53.7,7.594-21.844-1.418-43.309-2.816-65.195-3.883-2.508-.125-3.264-3.355-1.378-4.019,34.01-11.856,72.854-15.582,108.426-7.254a175.288,175.288,0,0,1-27.56-24.754,103.5,103.5,0,0,1-54.916,1.078" fill="#fff5e6"/>
              <path id="Path_8" data-name="Path 8" d="M1205.774,1368.629a16.721,16.721,0,0,0,0,33.442h140.007v-33.442Z" fill="#ffb17a"/>
              <path id="Path_9" data-name="Path 9" d="M1261.4,1368.629a16.721,16.721,0,0,0,0,33.442h140.02v-33.442Z" fill="#fff5e6"/>
              <path id="Path_10" data-name="Path 10" d="M1197.152,1402.07a16.717,16.717,0,1,0,0,33.434h140.02V1402.07Z" fill="#ffb17a"/>
              <path id="Path_11" data-name="Path 11" d="M1252.793,1402.07a16.717,16.717,0,1,0,0,33.434H1392.8V1402.07Z" fill="#fff"/>
              <path id="Path_12" data-name="Path 12" d="M1246.785,1285.762v31.816a51.06,51.06,0,0,0,102.121,0v-31.816Z" fill="#fff"/>
              <path id="Path_13" data-name="Path 13" d="M1339.219,1244.394l-.008-.008a41.375,41.375,0,0,0-41.367,41.375,41.37,41.37,0,0,0,41.375-41.367" fill="#4a8244"/>
              <path id="Path_14" data-name="Path 14" d="M1256.476,1244.394l.008-.008a41.368,41.368,0,0,1,41.359,41.375,41.363,41.363,0,0,1-41.367-41.367" fill="#4a8244"/>
              <path id="Path_15" data-name="Path 15" d="M1297.859,1197.356h-.016a62.5,62.5,0,0,0,0,88.406,62.517,62.517,0,0,0,.016-88.406" fill="#64a15e"/>
              <path id="Path_16" data-name="Path 16" d="M1518.074,1394.692l37.871-156.871-1.77-1.758-119.66-157.055-6.289,6.32,117.887,155.282-36.691,151.984Z" fill="#ffb17a"/>
              <path id="Path_17" data-name="Path 17" d="M1524.512,1239.219a24.773,24.773,0,1,0,24.778-24.777,24.787,24.787,0,0,0-24.778,24.777" fill="#ffb17a"/>
              <path id="Path_18" data-name="Path 18" d="M1392.492,1079.117a27.049,27.049,0,1,0,27.035-27.047,27.045,27.045,0,0,0-27.035,27.047" fill="#ffb17a"/>
              <path id="Path_19" data-name="Path 19" d="M1466.336,1387.91h97.676a6.294,6.294,0,0,1,6.293,6.278v10.937H1460.058v-10.937a6.283,6.283,0,0,1,6.278-6.278" fill="#ffb17a"/>
              <path id="Path_20" data-name="Path 20" d="M1448.106,1405.125h134.148a15.533,15.533,0,0,1,15.707,15.367v15.363h-165.57v-15.363a15.55,15.55,0,0,1,15.715-15.367" fill="#ffb17a"/>
              <path id="Path_21" data-name="Path 21" d="M1330.188,1173.226c15.09,12.836,36.312,12.676,47.371-.34,11.086-13.027,7.813-34-7.277-46.824s-36.309-12.676-47.383.34c-11.071,13.035-7.809,33.984,7.289,46.824" fill="#fff"/>
              <path id="Path_22" data-name="Path 22" d="M1408.223,1073.676c43.609,32.481,51.16,96.137,16.863,142.184L1267.16,1098.25c34.293-46.058,97.449-57.062,141.063-24.574" fill="#ffb17a"/>
              <path id="Path_23" data-name="Path 23" d="M916.435,1059.426l-107.143-22.769-107.133,22.769c-26.826,5.7-58.939,33.106-71.726,61.2L572.482,1435.5h559.007l-143.33-314.878c-12.789-28.094-44.9-55.5-71.724-61.2" fill="#7064b6"/>
              <path id="Path_24" data-name="Path 24" d="M763.642,1035.836l-4.535,18.476s11.684,30.723,51.9,30.723,51.905-30.723,51.905-30.723l-8.643-35.206c-14.652,12.269-42.248,29-90.629,16.73" fill="#fcc"/>
              <path id="Path_25" data-name="Path 25" d="M811.01,948.586H785.059l-22.065,89.9c48.385,12.274,77.3-4.363,91.954-16.636l-17.983-73.262Z" fill="#ffbdbd"/>
              <path id="Path_26" data-name="Path 26" d="M721.5,922.9a17.261,17.261,0,0,0,17.258,17.262V905.64A17.264,17.264,0,0,0,721.5,922.9" fill="#ffbdbd"/>
              <path id="Path_27" data-name="Path 27" d="M908.721,922.9a17.264,17.264,0,0,1-17.258,17.262V905.64A17.266,17.266,0,0,1,908.721,922.9" fill="#ffbdbd"/>
              <path id="Path_28" data-name="Path 28" d="M739.52,779.719c34.09-12.4,40.728-34.98,77.922-44.719s63.75,54.9,63.75,54.9,17.994-9.672,31,6.644c23.238,29.168-20.813,115.336-20.813,115.336l-151.857,4.61c-51.36-77.086-34.092-124.376,0-136.77" fill="#231747"/>
              <path id="Path_29" data-name="Path 29" d="M732.721,866.859s-15.881-5.969-22.162-10.879c0,0,2.828,20.3,27.359,58.082l7.283-16,.858-15.691V872.98Z" fill="#140c33"/>
              <path id="Path_30" data-name="Path 30" d="M892.268,804.684V933.828c0,42.618-26.293,94.462-77.172,94.462s-77.178-51.844-77.178-94.462V804.684Z" fill="#fcc"/>
              <path id="Path_31" data-name="Path 31" d="M867.223,815.719s-20.82-7.543-38.416,8.613-47.238,61.047-92.565,46.325L723.59,857.012l-2.867-40.578,12.568-28.008,74.686-5.387,59.246,3.95,33.037,15.086,1.769,59.538-9.67,50.266s2.518-82.516-25.136-96.16" fill="#231747"/>
              <path id="Path_32" data-name="Path 32" d="M877.871,796.617c1.4-15.445,25.275-22.188,25.275-22.188s-20.5,13.758-19.656,26.118" fill="#231747"/>
              <path id="Path_33" data-name="Path 33" d="M874.482,765.394s14.121,20.4,5.367,33.207l-6.828-.551c8.5-9,1.461-32.656,1.461-32.656" fill="#231747"/>
              <path id="Path_34" data-name="Path 34" d="M892.359,911.879s2.518-82.516-25.136-96.16c0,0-20.821-7.543-38.416,8.613s-47.239,61.047-92.565,46.325l-3.521-3.8c51.2,15.458,91.847-69.437,118.728-75.507,26.858-6.063,45.188,24.066,50,50.578,5.455,30.074-9.088,69.949-9.088,69.949" fill="#140c33"/>
              <path id="Path_35" data-name="Path 35" d="M470.381,1386.192c-16.445,27.238-3.974,49.312,27.836,49.312H642.664l-11.429-316.558Z" fill="#7064b6"/>
              <path id="Path_36" data-name="Path 36" d="M709.869,1372.664l-8.861,62.84h90.83c-11.293-68.3-81.969-62.84-81.969-62.84" fill="#fcc"/>
              <path id="Path_37" data-name="Path 37" d="M978.521,1423.984A11.555,11.555,0,0,1,967,1435.5H682.3a11.555,11.555,0,0,1-11.523-11.52v-15.742H967a11.56,11.56,0,0,1,11.524,11.523Z" fill="#231747"/>
              <path id="Path_38" data-name="Path 38" d="M1182.672,1412.953c-2.61,12.41-15.11,22.551-27.789,22.551H853.7c-12.675,0-20.9-10.141-18.295-22.551l40.934-194.43c2.609-12.41,15.119-22.55,27.791-22.55h301.183c12.68,0,20.9,10.14,18.294,22.55Z" fill="#231747"/>
              <path id="Path_39" data-name="Path 39" d="M1029.512,1345.25a29.508,29.508,0,1,1,29.5-29.508,29.549,29.549,0,0,1-29.5,29.508m0-57.387a27.877,27.877,0,1,0,27.871,27.879,27.914,27.914,0,0,0-27.871-27.879" fill="#7064b6"/>
              <path id="Path_40" data-name="Path 40" d="M586.66,1358.793h39.391l44.73-137.918Z" fill="#6358a5"/>
              <path id="Path_41" data-name="Path 41" d="M596.418,1358.793H709.709l-113.291-6.582Z" fill="#6358a5"/>
              <path id="Path_42" data-name="Path 42" d="M1664.117,1435.5H335.889A27.885,27.885,0,0,0,308,1463.391H1692a27.891,27.891,0,0,0-27.879-27.887" fill="#231747"/>
            </g>
          </g>
        </g>
      </g>
      <g id="freepik--Clock--inject-222" transform="translate(1852.454 217.573)">
        <path id="Path_46" data-name="Path 46" d="M691,276.581A120.146,120.146,0,1,1,811.142,156.436,120.146,120.146,0,0,1,691,276.581ZM691,39.7A116.733,116.733,0,1,0,807.729,156.436,116.733,116.733,0,0,0,691,39.7Z" transform="translate(-570.85 -36.29)" fill="#263238"/>
        <path id="Path_47" data-name="Path 47" d="M677.632,244.314A101.242,101.242,0,1,1,778.874,143.072,101.242,101.242,0,0,1,677.632,244.314Zm0-199.071a97.83,97.83,0,1,0,97.829,97.83,97.83,97.83,0,0,0-97.829-97.83Z" transform="translate(-557.486 -22.926)" fill="#263238"/>
        <path id="Path_48" data-name="Path 48" d="M639.43,117.372,592.58,106.76l.751-3.344,44.393,10.066L671.983,53.29l2.969,1.672Z" transform="translate(-518.432 4.718)" fill="#263238"/>
      </g>
      <g id="freepik--Pictures--inject-222" transform="translate(333.853 47.876)">
        <path id="Path_49" data-name="Path 49" d="M330.112,240.976H167.006a1.706,1.706,0,0,1-1.706-1.706V29.586a1.706,1.706,0,0,1,1.706-1.706H330.112a1.706,1.706,0,0,1,1.706,1.706V239.27A1.706,1.706,0,0,1,330.112,240.976Zm-161.4-3.412H328.406V31.292H168.712Z" transform="translate(27.459 -27.88)" fill="#263238"/>
        <path id="Path_50" data-name="Path 50" d="M312.139,217.886H170.086a1.74,1.74,0,0,1-1.706-1.706V33.556a1.706,1.706,0,0,1,1.706-1.706H312.139a1.706,1.706,0,0,1,1.706,1.706V216.18A1.706,1.706,0,0,1,312.139,217.886Zm-140.346-3.412H310.4V35.262H171.792Z" transform="translate(34.888 -18.303)" fill="#263238"/>
        <path id="Path_51" data-name="Path 51" d="M230,112.312H184.206a1.706,1.706,0,0,1-1.706-1.706V51.676a1.706,1.706,0,0,1,1.706-1.706h45.861a1.706,1.706,0,0,1,1.706,1.706v58.93A1.706,1.706,0,0,1,230,112.312ZM185.844,108.9h42.449V53.485H185.844Z" transform="translate(68.949 25.407)" fill="#263238"/>
        <path id="Path_52" data-name="Path 52" d="M273.622,286.94H110.516a1.74,1.74,0,0,1-1.706-1.706V75.516a1.74,1.74,0,0,1,1.706-1.706H273.622a1.74,1.74,0,0,1,1.706,1.706V285.234a1.74,1.74,0,0,1-1.706,1.706Zm-161.4-3.412H271.916V77.222H112.222Z" transform="translate(-108.81 82.915)" fill="#263238"/>
        <path id="Path_53" data-name="Path 53" d="M255.556,263.816H113.606a1.706,1.706,0,0,1-1.706-1.706V79.486a1.706,1.706,0,0,1,1.706-1.706h141.95a1.706,1.706,0,0,1,1.706,1.706V262.11A1.706,1.706,0,0,1,255.556,263.816ZM115.244,260.4H253.85V81.192H115.312Z" transform="translate(-101.356 92.492)" fill="#263238"/>
        <path id="Path_54" data-name="Path 54" d="M173.557,158.276H127.7a1.706,1.706,0,0,1-1.706-1.706V97.606A1.74,1.74,0,0,1,127.7,95.9h45.861a1.74,1.74,0,0,1,1.706,1.706V156.57A1.706,1.706,0,0,1,173.557,158.276ZM129.4,154.864h42.449V99.312H129.436Z" transform="translate(-67.367 136.202)" fill="#263238"/>
        <path id="Path_55" data-name="Path 55" d="M391.252,286.94H228.146a1.706,1.706,0,0,1-1.706-1.706V75.516a1.706,1.706,0,0,1,1.706-1.706H391.252a1.74,1.74,0,0,1,1.706,1.706V285.234a1.74,1.74,0,0,1-1.706,1.706Zm-161.4-3.412H389.546V77.222H229.852Z" transform="translate(174.944 82.915)" fill="#263238"/>
        <path id="Path_56" data-name="Path 56" d="M373.327,263.816H231.206a1.706,1.706,0,0,1-1.706-1.706V79.486a1.706,1.706,0,0,1,1.706-1.706H373.224a1.706,1.706,0,0,1,1.706,1.706V262.11A1.706,1.706,0,0,1,373.327,263.816ZM233.015,260.4H371.621V81.192H233.015Z" transform="translate(182.326 92.492)" fill="#263238"/>
        <path id="Path_57" data-name="Path 57" d="M291.187,158.276H245.326a1.706,1.706,0,0,1-1.706-1.706V97.606a1.706,1.706,0,0,1,1.706-1.706h45.861a1.74,1.74,0,0,1,1.706,1.706V156.57A1.706,1.706,0,0,1,291.187,158.276Zm-44.155-3.412h42.449V99.312H247.032Z" transform="translate(216.387 136.202)" fill="#263238"/>
        <path id="Path_58" data-name="Path 58" d="M330.112,224.922H167.006a1.706,1.706,0,0,1-1.706-1.706v-122.5a1.706,1.706,0,0,1,1.706-1.706H330.112a1.706,1.706,0,0,1,1.706,1.706v122.5A1.74,1.74,0,0,1,330.112,224.922Zm-161.4-3.412H328.406V102.388H168.712Z" transform="translate(27.459 143.704)" fill="#263238"/>
        <path id="Path_59" data-name="Path 59" d="M312.139,211.434H170.086a1.74,1.74,0,0,1-1.706-1.706v-106.7a1.74,1.74,0,0,1,1.706-1.706H312.139a1.706,1.706,0,0,1,1.706,1.706v106.7A1.706,1.706,0,0,1,312.139,211.434Zm-140.346-3.412H310.4V104.732H171.792Z" transform="translate(34.888 149.276)" fill="#263238"/>
        <path id="Path_60" data-name="Path 60" d="M230,149.752H184.206a1.706,1.706,0,0,1-1.706-1.706v-34.43a1.706,1.706,0,0,1,1.706-1.706h45.861a1.706,1.706,0,0,1,1.706,1.706v34.43A1.706,1.706,0,0,1,230,149.752Zm-44.155-3.412h42.449V115.322H185.844Z" transform="translate(68.949 174.822)" fill="#263238"/>
        <path id="Path_61" data-name="Path 61" d="M275.843,255.524H196.576a1.706,1.706,0,0,1-1.706-1.706V148.276a1.706,1.706,0,0,1,1.706-1.706h79.267a1.74,1.74,0,0,1,1.706,1.706V253.817a1.74,1.74,0,0,1-1.706,1.706Zm-77.561-3.412h75.855V149.982H198.282Z" transform="translate(98.789 258.431)" fill="#263238"/>
        <path id="Path_62" data-name="Path 62" d="M267.106,243.874h-69.03a1.706,1.706,0,0,1-1.706-1.706V150.276a1.706,1.706,0,0,1,1.706-1.706h69.03a1.706,1.706,0,0,1,1.706,1.706v91.892A1.706,1.706,0,0,1,267.106,243.874Zm-67.324-3.412H265.4v-88.48H199.782Z" transform="translate(102.408 263.256)" fill="#263238"/>
        <path id="Path_63" data-name="Path 63" d="M227.208,190.755H204.926a1.706,1.706,0,0,1-1.706-1.706V159.4a1.706,1.706,0,0,1,1.706-1.706h22.282a1.706,1.706,0,0,1,1.706,1.706v29.653A1.706,1.706,0,0,1,227.208,190.755Zm-20.474-3.412H225.6V161.1h-18.87Z" transform="translate(118.932 285.256)" fill="#263238"/>
        <path id="Path_64" data-name="Path 64" d="M241.489,255.524H162.256a1.706,1.706,0,0,1-1.706-1.706V148.276a1.706,1.706,0,0,1,1.706-1.706h79.233a1.706,1.706,0,0,1,1.706,1.706V253.817A1.706,1.706,0,0,1,241.489,255.524Zm-77.527-3.412h75.82V149.982h-75.82Z" transform="translate(16 258.431)" fill="#263238"/>
        <path id="Path_65" data-name="Path 65" d="M232.752,243.874h-69a1.706,1.706,0,0,1-1.706-1.706V150.276a1.706,1.706,0,0,1,1.706-1.706h69a1.706,1.706,0,0,1,1.706,1.706v91.892A1.706,1.706,0,0,1,232.752,243.874Zm-67.29-3.412h65.584v-88.48H165.462Z" transform="translate(19.619 263.256)" fill="#263238"/>
        <path id="Path_66" data-name="Path 66" d="M192.888,190.755H170.606a1.706,1.706,0,0,1-1.706-1.706V159.4a1.706,1.706,0,0,1,1.706-1.706h22.282a1.706,1.706,0,0,1,1.706,1.706v29.653A1.706,1.706,0,0,1,192.888,190.755Zm-20.474-3.412h18.87V161.1H172.312Z" transform="translate(36.143 285.256)" fill="#263238"/>
      </g>
    </g>
    <g id="freepik--Plant--inject-191" transform="translate(4949 -1308.357)">
      <path id="Path_420" data-name="Path 420" d="M221.8,512.113H88.094L70.31,382.08H239.584Z" transform="translate(20.118 277.443)" fill="#263238"/>
      <path id="Path_421" data-name="Path 421" d="M173.373,608.248s-18.72-88.453,15.372-136.369-30.816-.576-38.268,44.28c0,0-11.2-80.173,21.888-136.621s-28.8-10.08-34.056,48.06c0,0-10.152-71.569,5.04-111.6s-11.232-14.4-21.384,10.8,3.168,87.589,3.168,87.589S98.6,299,73.508,308.185s37.4,84.673,46.224,124.021c0,0-29.628-52.921-52.057-41.9s34.776,16.488,60.985,95.437l9.18,37.008s-27.216-52.273-44.928-35.784,52.813,44.928,69.229,124.093Z" transform="translate(0 51.492)" fill="#ffc100"/>
      <path id="Path_422" data-name="Path 422" d="M154.085,664.851s-3.924-111.6-59.041-158.8,36.756-9.828,59.041,41.688c0,0-10.476-99.4-66.925-157.142s31.5-20.664,55.117,47.376c0,0-9.18-88.7-39.348-132.337s9.18-20.556,28.8,6.624,22.356,105.769,22.356,105.769-2.628-146.125,30.168-142.6S164.6,388.189,165.893,437.869c0,0,19.692-72.217,49.86-65.7s-36.72,30.132-44.6,132.481V551.7s17.064-70.669,43.2-56.233-49.861,69.517-45.936,169.2Z" transform="translate(15.616)" fill="#ffc100"/>
      <path id="Path_423" data-name="Path 423" d="M154.085,664.851s-3.924-111.6-59.041-158.8,36.756-9.828,59.041,41.688c0,0-10.476-99.4-66.925-157.142s31.5-20.664,55.117,47.376c0,0-9.18-88.7-39.348-132.337s9.18-20.556,28.8,6.624,22.356,105.769,22.356,105.769-2.628-146.125,30.168-142.6S164.6,388.189,165.893,437.869c0,0,19.692-72.217,49.86-65.7s-36.72,30.132-44.6,132.481V551.7s17.064-70.669,43.2-56.233-49.861,69.517-45.936,169.2Z" transform="translate(15.616)" fill="#fff" opacity="0.2" style="isolation: isolate"/>
      <path id="Path_424" data-name="Path 424" d="M65.66,379.15v12.384a14.94,14.94,0,0,0,14.94,14.94H255.13a14.94,14.94,0,0,0,14.976-14.94V379.15Z" transform="translate(8.028 269.825)" fill="#263238"/>
      <path id="Path_425" data-name="Path 425" d="M65.66,379.15v12.384a14.94,14.94,0,0,0,14.94,14.94H255.13a14.94,14.94,0,0,0,14.976-14.94V379.15Z" transform="translate(8.028 269.825)" fill="#fff" opacity="0.2" style="isolation: isolate"/>
    </g>
  </g>
</svg>
